<svg id="Capa_1" enable-background="new 0 0 511.914 511.914" height="512" viewBox="0 0 511.914 511.914" width="512" xmlns="http://www.w3.org/2000/svg"><path id="XMLID_123_" d="m473.781 83.962c-18.863-18.862-42.659-31.342-68.815-36.089-25.542-4.636-51.587-1.646-75.318 8.646-5.067 2.197-7.393 8.086-5.196 13.153s8.088 7.392 13.153 5.196c41.86-18.154 89.763-9.034 122.034 23.238 20.852 20.852 32.335 48.576 32.335 78.064 0 29.489-11.484 57.213-32.335 78.065l-72.706 72.706-156.13-156.13 40.886-40.886c3.905-3.905 3.905-10.237 0-14.143-3.905-3.905-10.237-3.905-14.143 0l-127.733 127.735c-22.768 22.768-36.149 52.976-37.97 84.753-24.526-12.992-53.513-16.615-81.012-9.272-3.458.923-6.158 3.624-7.082 7.082-10.226 38.297.814 79.479 28.811 107.477 21.094 21.094 49.671 32.561 78.86 32.561 9.553 0 19.173-1.229 28.617-3.75.03-.008.057-.021.086-.029.259-.071.514-.157.767-.249.253.092.508.178.767.249.029.008.057.021.086.029 9.446 2.522 19.061 3.75 28.617 3.75 8.367 0 16.684-.947 24.79-2.789 9.025 1.895 18.091 2.835 27.082 2.835 34.179 0 67.189-13.427 91.995-38.232l159.554-159.554c50.844-50.844 50.844-133.572 0-184.416zm-362.386 362.16c-23.945-.001-47.391-9.407-64.691-26.708-21.572-21.571-30.87-52.691-24.966-82.429 29.739-5.901 60.857 3.395 82.429 24.967 18.547 18.547 28.01 44.153 26.55 69.87l-37.202-37.202c-3.905-3.905-10.237-3.905-14.143 0-3.905 3.905-3.905 10.237 0 14.143l37.199 37.199c-1.727.096-3.453.16-5.176.16zm53.813-.157 37.203-37.203c3.905-3.905 3.905-10.237 0-14.143-3.905-3.905-10.237-3.905-14.143 0l-37.202 37.202c-1.46-25.717 8.003-51.323 26.55-69.87 21.571-21.571 52.688-30.87 82.429-24.966 5.903 29.737-3.395 60.857-24.966 82.429-18.548 18.549-44.153 28.014-69.871 26.551zm134.877-32.176c-17.821 17.821-40.646 28.694-64.835 31.582 4.935-3.519 9.615-7.458 13.971-11.814 27.998-27.998 39.037-69.181 28.811-107.477-.923-3.458-3.624-6.158-7.082-7.082-38.297-10.226-79.479.813-107.477 28.811-9.565 9.566-17.148 20.672-22.583 32.674-5.435-12.003-13.017-23.109-22.583-32.674-2.096-2.096-4.274-4.085-6.512-5.989-1.721-31.351 9.939-61.942 32.159-84.161l72.706-72.706 156.13 156.13z"/><path id="XMLID_126_" d="m296.435 101.036c2.63 0 5.21-1.07 7.07-2.93 1.87-1.86 2.93-4.44 2.93-7.07s-1.06-5.21-2.93-7.07c-1.86-1.86-4.44-2.93-7.07-2.93s-5.21 1.07-7.07 2.93-2.93 4.44-2.93 7.07 1.07 5.21 2.93 7.07 4.44 2.93 7.07 2.93z"/></svg>