<svg id="Capa_1" enable-background="new 0 0 512 512" height="512" viewBox="0 0 512 512" width="512" xmlns="http://www.w3.org/2000/svg"><g><path d="m331 75c0-41.355-33.645-75-75-75s-75 33.645-75 75 33.645 75 75 75 75-33.645 75-75zm-75 45c-24.813 0-45-20.187-45-45s20.187-45 45-45 45 20.187 45 45-20.187 45-45 45z"/><path d="m511.76 392-33.39-26.713c-39.29-31.433-65.147-76.042-70.942-122.39-6.487-51.887-47.849-92.897-99.836-92.897h-103.184c-52.082 0-93.36 41.103-99.837 92.897-5.795 46.347-31.652 90.957-70.942 122.39l-33.389 26.713s44.812-.026 45.838-.046c-9.46 12.552-15.078 28.154-15.078 45.046 0 41.214 33.418 74.761 74.579 74.989l-.02.011h300.441c41.355 0 75-33.645 75-75 0-16.885-5.613-32.482-15.066-45.031 1.022.02 45.826.031 45.826.031zm-377.42-145.38c4.826-38.602 34.294-66.62 70.068-66.62h103.184c35.774 0 65.242 28.018 70.068 66.62 4.812 38.482 21.353 75.829 46.853 107.241-34.397-12.832-64.084-40.093-81.156-76.46l-20.106-42.832-31.357 177.234c-11.892 6.266-23.977 12.733-35.895 19.167-13.047-7.041-24.963-13.4-35.839-19.128l-28.832-169.272-20.386 42.617c-15.041 31.442-47.643 57.335-84.077 69.436 25.855-31.57 42.624-69.208 47.475-108.003zm41.643 84.524 10.805 63.431c-26.345-13.331-44.272-21.532-56.819-26.372 17.466-9.899 33.216-22.493 46.014-37.059zm-13.722 150.856h-56.261c-24.813 0-45-20.187-45-45 0-24.78 20.133-44.946 44.9-45 16.168 1.247 104.2 48.402 118.585 56.091-25.863 14.123-47.286 25.939-62.224 33.909zm243.739 0h-180.999c19.011-10.405 160.1-88.439 181.097-90 24.768.054 44.902 20.22 44.902 45 0 24.813-20.187 45-45 45zm-80.57-87.549 12.26-69.295c12.958 16.607 28.745 30.923 46.705 42.105-12.044 4.498-30.221 12.652-58.965 27.19z"/></g></svg>