<svg width="107" height="36" viewBox="0 0 107 36" fill="none" xmlns="http://www.w3.org/2000/svg">
<path d="M50.2123 26.0886H48V32.9311H50.2123C52.3855 32.9311 53.8084 31.6414 53.8084 29.5345C53.8084 27.4177 52.3855 26.0886 50.2123 26.0886ZM49.111 32.0155V27.0042H50.2123C51.8105 27.0042 52.6681 27.9691 52.6681 29.5345C52.6681 31.09 51.8105 32.0155 50.2123 32.0155H49.111Z" fill="#206A65"/>
<path d="M59.4802 32.9312H60.6496L58.223 26.0789H56.9366L54.5099 32.9312H55.6696L56.1569 31.5332H58.9929L59.4802 32.9312ZM58.681 30.6175H56.4688L57.5798 27.4375L58.681 30.6175Z" fill="#206A65"/>
<path d="M66.2755 30.9916C66.2755 28.4909 62.6891 29.4557 62.6891 27.91C62.6891 27.2504 63.1861 26.9353 63.8293 26.955C64.531 26.9747 64.9306 27.398 64.9695 27.8608H66.1975C66.1 26.6892 65.1839 26 63.8878 26C62.5039 26 61.5586 26.7482 61.5586 27.9494C61.5586 30.4698 65.1547 29.3966 65.1547 31.0506C65.1547 31.6315 64.7162 32.0549 63.9365 32.0549C63.1666 32.0549 62.7768 31.602 62.7281 31.0408H61.5391C61.5391 32.2518 62.5819 33 63.9365 33C65.4471 33 66.2755 32.0155 66.2755 30.9916Z" fill="#206A65"/>
<path d="M71.8842 32.9311H72.9952V26.0886H71.8842V29.0225H68.6974V26.0886H67.5864V32.9311H68.6974V29.9381H71.8842V32.9311Z" fill="#206A65"/>
<path d="M78.2781 30.9719C78.2781 31.6315 77.82 32.0155 77.0696 32.0155H75.5688V29.879H77.0306C77.7713 29.879 78.2781 30.2925 78.2781 30.9719ZM78.1027 27.9887C78.1027 28.6188 77.6641 28.9634 76.9429 28.9634H75.5688V27.0042H76.9429C77.6641 27.0042 78.1027 27.3685 78.1027 27.9887ZM79.3891 31.09C79.3891 30.2729 78.8043 29.5443 78.0832 29.4163C78.7361 29.18 79.2332 28.6779 79.2332 27.8509C79.2332 26.8861 78.473 26.0886 77.0404 26.0886H74.4578V32.9311H77.1671C78.551 32.9311 79.3891 32.1336 79.3891 31.09Z" fill="#206A65"/>
<path d="M87.1455 29.4951C87.1455 27.4473 85.6154 26 83.6858 26C81.7756 26 80.2261 27.4473 80.2261 29.4951C80.2261 31.5527 81.7756 33 83.6858 33C85.6154 33 87.1455 31.5527 87.1455 29.4951ZM81.3663 29.4951C81.3663 27.9494 82.3409 26.9845 83.6858 26.9845C85.0307 26.9845 86.0052 27.9494 86.0052 29.4951C86.0052 31.0408 85.0307 32.0253 83.6858 32.0253C82.3409 32.0253 81.3663 31.0408 81.3663 29.4951Z" fill="#206A65"/>
<path d="M92.8094 32.9312H93.9789L91.5522 26.0789H90.2658L87.8391 32.9312H88.9989L89.4861 31.5332H92.3221L92.8094 32.9312ZM92.0103 30.6175H89.798L90.909 27.4375L92.0103 30.6175Z" fill="#206A65"/>
<path d="M98.63 28.1364C98.63 28.8158 98.2402 29.2982 97.3728 29.2982H96.1449V27.0042H97.3728C98.2402 27.0042 98.63 27.4473 98.63 28.1364ZM95.0339 26.0886V32.9311H96.1449V30.1941H96.9928L98.5521 32.9311H99.8775L98.2012 30.0956C99.3414 29.8101 99.7703 28.9437 99.7703 28.1364C99.7703 27.0239 98.9809 26.0886 97.3728 26.0886H95.0339Z" fill="#206A65"/>
<path d="M103.404 26.0886H101.192V32.9311H103.404C105.577 32.9311 107 31.6414 107 29.5345C107 27.4177 105.577 26.0886 103.404 26.0886ZM102.303 32.0155V27.0042H103.404C105.002 27.0042 105.86 27.9691 105.86 29.5345C105.86 31.09 105.002 32.0155 103.404 32.0155H102.303Z" fill="#206A65"/>
<path d="M47 20.8442H50.5646V5.22253H47V20.8442Z" fill="#206A65"/>
<path d="M56.7126 12.21V8.29346H58.6511C60.0687 8.29346 60.6732 9.05007 60.6732 10.2517C60.6732 11.4534 60.0687 12.21 58.6511 12.21H56.7126ZM64.3004 10.2517C64.3004 7.38108 62.5076 5.22253 58.9221 5.22253H53.1479V20.8442H56.7126V15.2364H58.9221C62.6535 15.2364 64.3004 12.8331 64.3004 10.2517Z" fill="#206A65"/>
<path d="M76.7875 16.1933C76.7875 10.9638 69.5541 12.1878 69.5541 9.47288C69.5541 8.49374 70.2003 8.02642 71.055 8.04868C72.0139 8.07093 72.6809 8.67177 72.7435 9.67316H76.5999C76.454 6.69124 74.3069 5 71.1175 5C68.0532 5 65.781 6.64673 65.781 9.6064C65.7393 15.1474 73.0562 13.5897 73.0562 16.4826C73.0562 17.395 72.3891 17.9513 71.3468 17.9513C70.3462 17.9513 69.6375 17.3727 69.5332 16.1711H65.7393C65.8435 19.331 68.3033 21 71.451 21C74.8697 21 76.7875 18.8192 76.7875 16.1933Z" fill="#206A65"/>
<path d="M93.3855 12.9889C93.3855 8.29346 90.0711 5 85.9019 5C81.7536 5 78.3766 8.29346 78.3766 12.9889C78.3766 17.6843 81.7536 21 85.9019 21C90.0502 21 93.3855 17.6843 93.3855 12.9889ZM82.0246 12.9889C82.0246 10.2072 83.5255 8.44923 85.9019 8.44923C88.2366 8.44923 89.7584 10.2072 89.7584 12.9889C89.7584 15.726 88.2366 17.5285 85.9019 17.5285C83.5255 17.5285 82.0246 15.726 82.0246 12.9889Z" fill="#206A65"/>
<path d="M106 16.1933C106 10.9638 98.7665 12.1878 98.7665 9.47288C98.7665 8.49374 99.4127 8.02642 100.267 8.04868C101.226 8.07093 101.893 8.67177 101.956 9.67316H105.812C105.666 6.69124 103.519 5 100.33 5C97.2656 5 94.9934 6.64673 94.9934 9.6064C94.9518 15.1474 102.269 13.5897 102.269 16.4826C102.269 17.395 101.602 17.9513 100.559 17.9513C99.5587 17.9513 98.8499 17.3727 98.7457 16.1711H94.9517C95.056 19.331 97.5158 21 100.663 21C104.082 21 106 18.8192 106 16.1933Z" fill="#206A65"/>
<path d="M0 8.18182C0 3.66313 3.66313 0 8.18182 0H27.8182C32.3369 0 36 3.66313 36 8.18182V27.8182C36 32.3369 32.3369 36 27.8182 36H8.18182C3.66313 36 0 32.3369 0 27.8182V8.18182Z" fill="#206A65"/>
<path d="M17.9435 6C13.0356 6 8.6275 8.84444 6.67341 13.2444C6.58252 13.4667 6.67341 13.7333 6.90063 13.8222C7.12785 13.9111 7.40051 13.8222 7.49139 13.6C8.49116 11.3778 10.1726 9.55556 12.2176 8.4C11.5814 9.02222 11.036 9.77778 10.627 10.5778C10.4453 10.9333 10.4907 11.3778 10.7634 11.6444C11.1724 12.0889 11.9449 11.8667 12.1721 11.6444C12.3539 11.4667 12.3085 11.2444 12.1721 11.0222C11.9449 10.6667 11.445 11.0222 11.445 11.0222C11.445 11.0222 12.263 8.66667 15.3987 7.15556C15.944 7.02222 16.4439 6.97778 16.9892 6.93333C16.5348 7.37778 16.0349 7.77778 15.4441 8.13333C15.4441 8.13333 13.3537 9.37778 13.0356 9.64444C12.8538 9.82222 12.8538 10.0444 12.9901 10.2667C13.2173 10.5778 13.5355 10.4 13.6263 10.3111C13.9444 10.0889 15.944 8.88889 15.944 8.88889C17.1255 8.4 18.3525 6.93333 18.3525 6.93333C20.3975 7.02222 22.3061 7.6 23.9421 8.62222L22.806 9.73333C22.1244 10.4 21.5336 10.8444 20.9428 11.1556C19.4432 12 18.2616 13.2444 17.4891 14.7556C17.3073 15.1111 17.3527 15.5556 17.6254 15.8222C18.0799 16.2222 18.807 16.0444 19.0342 15.8222L19.8067 15.0667C19.9885 14.8889 19.9885 14.6222 19.8067 14.4444C19.6249 14.2667 19.3523 14.2667 19.1705 14.4444L18.3071 15.2C18.3071 15.2 19.0342 13.1556 21.3973 11.9111C22.0789 11.5556 22.7151 11.0222 23.4422 10.3111L24.7147 9.06667C24.9419 9.24444 25.1691 9.42222 25.3963 9.6L23.9876 10.9778C23.4422 11.4667 22.9424 11.9111 22.3516 12.2667L21.0337 13.0222C20.8065 13.1556 20.7156 13.4222 20.8519 13.6444C21.0337 13.9556 21.3973 13.8667 21.4881 13.8222L22.806 13.0667C23.4877 12.6667 24.0785 12.1778 24.6238 11.6444L26.078 10.2222C26.3961 10.5333 26.6688 10.8444 26.9414 11.1556L22.9424 15.0667C21.9426 16.0444 21.17 17.1556 20.6702 18.3556C20.1248 19.6 19.3977 20.8 18.4434 21.9111C18.2616 22.0889 18.3071 22.3556 18.4888 22.5333C18.7161 22.7556 19.0342 22.5778 19.1251 22.4889C20.1248 21.3333 20.8974 20.0444 21.4881 18.7111C21.9426 17.6 22.6242 16.6222 23.5786 15.6889L27.4868 11.8667C28.0321 12.6667 28.4411 13.5111 28.7592 14.4L26.7142 16.4444C25.8508 17.1111 25.0782 18.7111 25.0782 18.7111C24.4875 19.6889 23.624 20.5333 22.6242 21.1111C21.5336 21.7778 20.4884 22.5333 19.6249 23.3778L18.3525 24.6222C18.1707 24.8 17.8981 24.8 17.7163 24.6222C17.6254 24.5333 17.4891 24.2667 17.7163 24C17.8981 23.8222 17.8981 23.5556 17.7163 23.3778C17.5345 23.2 17.2164 23.2 17.0801 23.3778C16.3075 24.2667 16.8074 24.9778 17.0801 25.2444C17.8072 25.9556 18.7161 25.5111 18.9887 25.2444L20.2612 24C21.0792 23.2 22.0335 22.4444 23.0787 21.8222C24.2148 21.1556 25.1237 20.2222 25.8053 19.1556C25.8053 19.1556 26.5324 17.6889 27.3504 17.0667L29.0318 15.3778C29.2136 16.2222 29.3045 17.1111 29.3045 18C29.3045 23.2889 25.4872 27.7333 20.4429 28.8444C20.6702 28.6667 20.8974 28.5333 21.1246 28.4C21.3518 28.2667 21.3973 28 21.2609 27.7778C21.1246 27.5556 20.8519 27.5111 20.6247 27.6444C19.7613 28.0889 18.7161 29.1111 18.7161 29.1111C18.4434 29.1111 17.6254 29.1556 17.4891 29.1111L18.1253 28.4889C18.7161 27.9111 19.216 27.5556 19.7613 27.2444L21.0792 26.4889C21.8063 26.0889 22.397 25.6 22.8969 25.0667C22.8969 25.0667 23.7149 24.2667 23.7603 24.3111C23.7603 24.3111 22.8969 25.7778 22.3516 26.3556C22.1698 26.5333 22.1698 26.8 22.3516 26.9778C22.5334 27.1556 22.806 27.1556 22.9878 26.9778C23.624 26.3111 24.1693 25.6 24.5783 24.7556C24.7601 24.4 24.6692 23.9556 24.442 23.6889C23.9421 23.2889 23.2605 23.4667 23.0332 23.6889L22.2607 24.4444C21.8063 24.9333 21.2609 25.3333 20.6247 25.6889L19.3068 26.4444C18.6706 26.8 18.1253 27.2444 17.4891 27.8667L16.3075 28.9778C14.2626 28.7111 12.3994 27.8667 10.8543 26.6667L12.1721 25.3778C12.8538 24.7111 13.4446 24.2667 14.0353 23.9556C15.535 23.1111 16.7165 21.8667 17.4891 20.3556C17.6709 20 17.6709 19.5556 17.3073 19.2444C17.1255 19.0667 16.353 18.8444 15.944 19.2444L15.1714 20C14.717 20.4889 14.1717 20.8889 13.5355 21.2444L12.2176 22C11.4905 22.4 10.8997 22.8889 10.3998 23.4222L8.99106 24.8C8.76384 24.4889 8.53662 24.2222 8.35484 23.9111L12.263 20.0889C13.3082 19.0222 14.0353 17.9111 14.5352 16.7556C15.2169 15.1111 16.2621 13.6 17.6254 12.2667L18.1253 11.7778C18.398 11.5111 18.7615 10.5333 18.1253 9.91111C17.58 9.37778 16.762 9.37778 16.2166 9.91111L14.9442 11.1556C14.1262 11.9556 13.1719 12.7111 12.1267 13.3333C10.9451 14.0444 10.0363 14.9333 9.40005 16C9.40005 16 8.58206 17.6889 7.9004 18.0889L6.7643 19.2C6.62797 18.8444 6.58252 18.4444 6.58252 18C6.58252 17.7333 6.40075 17.5556 6.12808 17.5556C5.85542 17.5556 5.67365 17.7333 5.67365 18C5.67365 24.6222 11.1724 30 17.9435 30C24.7147 30 30.2134 24.6222 30.2134 18C30.2134 11.3778 24.7147 6 17.9435 6ZM6.85519 20.3556L8.44573 18.8C9.40005 18.0444 10.1272 16.5333 10.1272 16.5333C10.7179 15.5556 11.5359 14.7556 12.5811 14.1333C13.6718 13.4667 14.717 12.7111 15.5804 11.8667L16.8529 10.6222C17.0346 10.4444 17.2619 10.4444 17.4891 10.6222C17.7617 10.8444 17.58 11.1556 17.4891 11.2444L16.9892 11.7333C15.535 13.1556 14.4443 14.7556 13.7172 16.4889C13.2628 17.5556 12.5811 18.5778 11.6268 19.5556L7.9004 23.2C7.40052 22.2667 7.03696 21.3333 6.85519 20.3556ZM9.58183 25.5111L11.036 24.0889C11.4905 23.6 12.0358 23.2 12.672 22.8444L13.9899 22.0889C14.717 21.6889 15.3078 21.2 15.8077 20.6667C15.8077 20.6667 16.6256 19.9111 16.6711 19.9111C16.6711 19.9111 14.8988 22.4889 13.5809 23.2C12.8992 23.5556 12.263 24.0889 11.5359 24.8L10.1726 26.1333C9.99082 25.9111 9.7636 25.7333 9.58183 25.5111Z" fill="white"/>
<path d="M5.8178 15.1982C5.7721 15.3363 5.7264 15.502 5.68069 15.6677C5.63499 15.8058 5.8178 15.9715 6.04631 15.9991C6.09201 15.9991 6.50332 16.0267 6.59472 15.7782C6.64043 15.6401 6.68613 15.502 6.73183 15.3639C6.77753 15.2258 6.64043 15.0601 6.41192 15.0325C6.13771 14.9497 5.8635 15.0325 5.8178 15.1982Z" fill="white"/>
</svg>
